<?xml version="1.0" standalone="no"?>
<!DOCTYPE svg PUBLIC "-//W3C//DTD SVG 20010904//EN"
 "http://www.w3.org/TR/2001/REC-SVG-20010904/DTD/svg10.dtd">
<svg version="1.0" xmlns="http://www.w3.org/2000/svg"
 width="3840.000000pt" height="2160.000000pt" viewBox="0 0 3840.000000 2160.000000"
 preserveAspectRatio="xMidYMid meet">

<g transform="translate(0.000000,2160.000000) scale(0.100000,-0.100000)"
fill="#000000" stroke="none">
<path d="M19685 20670 c-3 -5 -15 -10 -26 -10 -10 0 -27 -4 -37 -9 -9 -6 -28
-12 -42 -15 -14 -3 -48 -22 -74 -43 -27 -21 -82 -51 -122 -68 -92 -38 -141
-78 -213 -174 -31 -42 -101 -130 -156 -197 -55 -66 -116 -140 -135 -164 -62
-77 -95 -105 -144 -119 -26 -8 -64 -22 -85 -31 -20 -10 -58 -28 -86 -40 -52
-24 -171 -82 -240 -118 -22 -11 -56 -28 -76 -37 -19 -8 -73 -54 -119 -101 -81
-83 -190 -166 -258 -195 -20 -9 -45 -33 -65 -64 -18 -27 -37 -57 -44 -65 -52
-65 -73 -94 -73 -105 0 -18 -83 -92 -125 -112 -32 -15 -44 -16 -113 -4 -121
20 -172 15 -202 -17 -41 -45 -102 -115 -146 -168 -23 -27 -83 -96 -134 -154
-165 -187 -155 -162 -171 -432 -11 -192 -29 -350 -49 -428 -5 -19 -16 -66 -25
-105 -18 -80 -22 -95 -70 -265 -19 -69 -44 -152 -54 -185 -11 -33 -31 -100
-46 -150 -44 -149 -47 -158 -71 -209 -13 -28 -24 -64 -24 -82 0 -75 -51 -213
-121 -331 -60 -101 -108 -237 -165 -468 -9 -38 -20 -74 -23 -80 -11 -16 -29
-77 -37 -120 -10 -57 -38 -117 -72 -156 -19 -22 -67 -127 -137 -299 -58 -146
-111 -273 -116 -282 -15 -30 -50 -131 -70 -208 -35 -132 -39 -141 -134 -345
-41 -89 -58 -135 -80 -225 -4 -14 -10 -34 -15 -45 -5 -11 -21 -51 -36 -90 -14
-38 -39 -96 -55 -127 -41 -82 -59 -137 -59 -186 0 -59 -18 -88 -91 -152 -97
-84 -117 -108 -159 -195 -53 -110 -75 -178 -111 -335 -17 -74 -35 -148 -40
-165 -5 -16 -16 -52 -24 -78 -8 -26 -15 -64 -15 -85 0 -46 -61 -220 -132 -382
-11 -25 -33 -61 -49 -82 -41 -51 -59 -99 -59 -155 0 -45 5 -53 66 -123 37 -41
74 -86 83 -100 24 -38 114 -164 121 -170 4 -3 21 -27 40 -55 68 -102 93 -114
158 -75 18 11 37 20 42 20 6 0 10 -32 10 -72 1 -80 7 -93 61 -126 20 -12 53
-41 72 -65 82 -100 130 -136 332 -251 61 -34 106 -70 153 -121 37 -40 89 -90
115 -111 49 -40 147 -161 174 -216 15 -29 85 -81 127 -94 12 -4 28 -12 36 -19
8 -6 35 -20 60 -29 25 -10 68 -39 95 -66 29 -28 81 -63 125 -84 41 -20 89 -47
105 -61 17 -14 50 -43 75 -64 25 -21 88 -68 140 -103 52 -36 116 -85 141 -109
26 -24 64 -53 85 -64 22 -11 54 -30 73 -42 19 -13 42 -23 52 -23 25 0 74 44
92 82 51 109 76 168 87 208 19 68 81 244 90 255 21 28 19 61 -6 97 l-26 37 18
48 c10 26 37 68 60 94 33 38 42 56 48 100 6 49 20 105 47 195 5 17 9 90 9 163
0 116 4 146 31 249 17 64 33 128 34 142 2 14 13 93 25 175 12 83 26 182 31
220 14 99 27 185 34 220 3 17 10 55 16 85 23 114 61 268 86 340 19 56 35 84
64 110 35 32 40 43 59 135 29 134 37 173 49 220 19 74 40 160 59 245 11 47 27
117 36 155 9 39 21 90 27 115 5 25 14 62 19 83 26 101 58 237 76 322 29 138
35 155 61 161 14 4 53 4 87 0 58 -6 65 -4 90 19 31 29 69 49 108 59 20 4 28
13 30 34 3 24 7 27 48 30 41 2 53 -3 130 -58 47 -34 123 -96 169 -138 46 -42
97 -85 112 -96 31 -19 45 -53 34 -85 -3 -11 4 -59 16 -108 12 -48 22 -122 23
-163 2 -74 6 -92 53 -220 12 -36 23 -73 23 -82 0 -9 5 -20 10 -23 6 -3 10 -13
10 -22 0 -15 62 -222 80 -268 42 -106 110 -348 110 -392 0 -71 20 -141 73
-253 75 -159 87 -191 87 -229 0 -54 26 -169 45 -198 12 -18 15 -37 11 -72 -15
-120 -18 -172 -8 -184 17 -21 106 -270 152 -427 12 -41 27 -88 32 -105 13 -37
26 -101 38 -181 5 -34 20 -90 34 -124 37 -90 73 -246 91 -395 17 -140 22 -161
67 -275 17 -41 34 -103 39 -138 5 -35 13 -72 19 -82 6 -11 39 -26 90 -40 68
-18 84 -19 97 -8 34 28 153 219 164 262 13 53 36 70 79 61 24 -5 42 2 102 43
40 26 100 64 133 82 34 19 89 65 125 104 36 38 98 101 137 141 72 70 72 72 61
103 -15 39 -6 51 48 59 21 3 48 14 60 24 17 16 27 18 70 10 57 -11 45 -18 185
104 57 49 118 101 134 115 17 13 82 76 146 140 63 63 137 133 163 155 44 36
52 51 88 150 41 112 72 205 89 261 12 42 11 101 -3 140 -9 25 -9 46 1 91 7 32
16 65 20 73 27 51 81 -24 81 -111 0 -30 3 -78 6 -106 9 -71 28 -70 108 7 52
50 69 60 98 60 19 0 48 6 64 14 16 8 49 24 74 34 25 11 54 29 65 40 210 208
255 260 255 294 0 24 -10 46 -33 74 -53 62 -127 170 -127 185 0 8 -7 23 -16
34 -8 11 -19 36 -24 57 -10 34 -13 37 -53 40 l-42 3 1 110 c1 61 5 127 9 149
6 31 2 50 -18 95 -109 238 -137 302 -137 306 0 3 -9 27 -21 53 -45 102 -49
113 -49 132 0 10 -4 21 -9 24 -5 3 -11 18 -14 33 -3 16 -10 46 -17 68 -12 46
-24 116 -44 263 -19 139 -49 184 -115 175 -53 -7 -69 16 -82 118 -13 112 -22
146 -126 474 -46 147 -59 194 -82 295 -11 47 -26 108 -35 135 -9 28 -16 76
-16 107 0 44 -17 109 -71 275 -39 120 -82 247 -95 283 -25 70 -78 237 -189
595 -57 183 -122 378 -167 500 -65 178 -178 465 -204 522 -24 51 -27 53 -64
53 -42 0 -60 18 -60 61 0 12 -4 36 -10 53 -5 17 -21 85 -35 151 -24 112 -32
152 -57 280 -5 28 -14 68 -19 90 -6 22 -14 60 -19 85 -4 25 -22 86 -38 135
-17 50 -40 122 -51 160 -30 100 -73 237 -81 260 -15 40 -71 225 -86 282 -8 32
-30 90 -48 128 -40 85 -80 191 -100 265 -9 30 -25 89 -36 130 -56 200 -61 229
-69 376 -8 163 -11 173 -101 329 -16 28 -31 55 -34 60 -2 6 -21 0 -45 -13 -51
-28 -67 -21 -166 75 -7 6 -34 30 -61 53 -27 23 -83 75 -126 116 -73 71 -99 86
-113 64z"/>
<path d="M17529 19627 c-110 -73 -233 -144 -374 -217 -88 -46 -166 -87 -173
-93 -19 -15 0 -30 77 -61 62 -25 73 -26 258 -26 l194 0 82 57 c97 67 99 70 93
105 -6 30 -9 26 127 125 42 31 77 60 77 65 0 5 -28 22 -62 38 -57 27 -73 30
-164 30 -88 0 -106 -3 -135 -23z"/>
<path d="M23418 12403 c-51 -48 -140 -128 -198 -178 -57 -49 -129 -112 -160
-140 -31 -27 -80 -70 -109 -95 -30 -25 -59 -50 -65 -56 -6 -5 -38 -32 -72 -60
-85 -69 -269 -221 -324 -269 -26 -22 -58 -49 -71 -60 -13 -11 -64 -54 -114
-95 -137 -114 -277 -234 -376 -324 -30 -28 -66 -60 -80 -70 -13 -10 -44 -37
-69 -60 -42 -38 -122 -108 -230 -201 -26 -22 -75 -65 -110 -95 -34 -30 -74
-64 -88 -75 -14 -11 -51 -42 -82 -70 -31 -27 -70 -61 -86 -75 -17 -14 -58 -48
-90 -76 -32 -28 -116 -100 -185 -160 -70 -60 -197 -170 -284 -244 -86 -74
-178 -152 -203 -173 -26 -21 -60 -51 -77 -65 -16 -15 -57 -49 -90 -77 -33 -27
-80 -68 -105 -90 -52 -47 -138 -104 -223 -147 -90 -46 -129 -32 -183 66 -6 11
-21 28 -35 38 -23 17 -29 17 -109 3 -47 -8 -100 -15 -119 -15 -37 0 -101 -37
-101 -57 0 -16 3 -16 48 3 46 19 154 29 218 19 39 -5 57 -15 86 -46 32 -34 38
-47 38 -84 0 -74 -67 -233 -150 -355 -106 -155 -354 -414 -540 -564 -121 -98
-166 -126 -199 -126 -33 0 -81 50 -91 95 -14 60 -12 164 5 228 18 71 19 76 1
52 -7 -10 -20 -16 -28 -12 -39 14 -26 336 15 361 30 19 46 -19 47 -111 0 -80
12 -115 24 -70 3 12 6 134 6 270 l0 249 -27 27 c-63 64 -74 80 -93 132 -12 33
-20 79 -20 120 0 36 -4 90 -10 120 -5 30 -15 103 -22 162 -13 113 -26 143 -54
116 -8 -9 -18 -50 -24 -100 -40 -347 -50 -418 -63 -449 -9 -19 -34 -53 -56
-74 -59 -57 -65 -85 -57 -255 10 -239 18 -351 25 -351 3 0 7 42 7 93 2 125 24
167 59 113 12 -17 18 -60 22 -148 6 -129 0 -198 -18 -198 -13 0 -39 26 -39 39
0 5 -4 12 -8 15 -5 3 2 -34 15 -82 12 -48 23 -113 23 -144 0 -112 -48 -198
-110 -198 -46 0 -253 164 -430 340 -222 221 -355 403 -420 572 -51 133 -38
205 45 247 42 21 57 23 134 18 47 -3 105 -12 129 -21 36 -13 42 -13 42 -1 0
26 -48 47 -127 56 -43 5 -100 14 -128 20 l-49 12 -38 -43 c-21 -23 -38 -48
-38 -55 0 -17 -61 -55 -87 -55 -21 0 -118 47 -193 95 -25 16 -91 69 -148 119
-57 50 -131 113 -165 140 -34 27 -82 67 -107 90 -55 49 -96 85 -175 151 -33
27 -73 62 -90 76 -94 82 -136 118 -179 154 -27 22 -54 45 -60 50 -16 14 -275
238 -315 271 -18 16 -59 52 -90 79 -31 28 -76 66 -99 85 -24 19 -57 49 -75 65
-18 17 -54 48 -81 70 -27 22 -75 63 -105 91 -31 28 -92 81 -136 119 -44 38
-103 89 -130 114 -28 25 -73 65 -100 88 -75 63 -97 82 -130 111 -17 15 -55 47
-85 72 -30 25 -64 53 -75 63 -11 9 -81 68 -155 129 -112 93 -264 220 -355 297
-11 9 -51 43 -90 75 -38 33 -91 78 -116 100 -25 23 -79 70 -119 106 -41 36
-110 99 -153 140 -43 41 -86 79 -95 84 -10 5 -20 14 -24 20 -4 6 -9 8 -13 5
-5 -6 59 -84 154 -184 146 -155 208 -250 271 -416 28 -74 57 -150 65 -169 7
-19 30 -80 50 -135 43 -118 144 -325 199 -410 22 -33 66 -93 98 -132 71 -89
74 -108 18 -99 -39 6 -96 36 -198 103 -29 20 -55 33 -58 30 -3 -3 13 -29 35
-57 27 -34 48 -76 62 -123 25 -85 77 -222 98 -257 68 -114 121 -174 239 -268
23 -18 42 -37 42 -42 0 -19 -47 -20 -130 -4 -47 8 -110 20 -140 24 -30 5 -65
12 -76 15 -44 14 -32 -13 19 -40 64 -34 117 -73 117 -85 0 -5 18 -47 39 -92
48 -100 122 -207 187 -269 49 -47 208 -159 225 -159 5 0 9 -7 9 -15 0 -44
-214 -5 -311 56 -25 16 -49 29 -52 29 -21 0 4 -33 91 -119 61 -60 126 -139
175 -211 122 -178 193 -277 275 -380 81 -102 311 -360 321 -360 3 -1 29 -21
56 -47 117 -107 169 -138 435 -257 250 -111 548 -266 757 -393 224 -136 289
-177 338 -213 28 -20 76 -55 108 -77 89 -62 187 -152 187 -173 0 -31 -18 -33
-66 -6 -70 39 -307 144 -429 191 -60 23 -166 65 -235 92 -69 28 -159 64 -200
81 -77 31 -151 61 -275 114 -105 45 -204 96 -258 134 -26 19 -49 34 -52 34
-13 0 -2 -24 28 -57 19 -21 50 -67 69 -103 74 -138 91 -167 132 -230 24 -36
55 -87 70 -115 147 -267 502 -678 826 -956 297 -255 510 -463 630 -619 19 -25
37 -47 41 -50 14 -12 129 -180 129 -189 0 -6 5 -11 10 -11 6 0 10 -4 10 -8 0
-5 26 -54 58 -110 33 -56 76 -143 96 -194 21 -51 42 -102 46 -113 43 -97 93
-283 120 -440 4 -27 14 -77 21 -110 8 -38 13 -153 14 -310 3 -324 3 -323 71
-557 8 -26 14 -77 14 -114 0 -56 5 -75 31 -120 32 -56 71 -94 97 -94 13 0 13
2 0 18 -15 17 -30 65 -48 149 -5 24 -17 57 -25 74 -9 16 -15 42 -13 57 5 40
36 39 81 -3 25 -24 46 -35 67 -35 17 0 30 3 30 6 0 7 -45 44 -72 59 -10 6 -39
42 -65 80 -39 58 -47 78 -47 118 -1 26 4 51 10 55 24 16 22 46 -7 125 -79 216
-74 186 -61 347 6 80 18 174 27 209 13 48 15 80 9 120 -18 129 1 429 29 457
23 23 97 -106 97 -167 0 -88 25 -290 60 -474 10 -55 24 -134 31 -175 14 -82
22 -526 22 -1205 l0 -421 -26 -52 -26 -52 27 -57 c33 -73 41 -164 18 -232 -14
-44 -14 -53 0 -101 13 -43 15 -82 9 -204 -8 -203 -25 -285 -81 -402 -13 -28
-24 -54 -24 -57 0 -3 -23 -54 -51 -114 -159 -336 -153 -321 -134 -366 12 -29
13 -45 4 -79 -20 -80 -19 -83 27 -80 35 3 51 -4 118 -49 43 -29 96 -72 119
-96 23 -24 49 -43 58 -43 10 0 30 16 45 35 14 19 69 65 121 100 86 60 97 65
130 59 l36 -7 -7 34 c-18 101 -19 109 -1 135 17 26 16 29 -6 78 -51 115 -74
166 -124 271 -82 172 -105 225 -105 239 0 7 -3 16 -7 20 -17 16 -33 112 -47
269 -12 131 -13 180 -4 220 13 57 13 90 3 218 -7 82 -6 87 23 145 l31 61 -27
54 -27 54 -3 417 c-2 294 0 424 8 438 8 16 8 25 0 35 -14 16 3 681 19 761 48
236 53 265 77 499 16 164 36 236 75 271 25 23 44 6 55 -49 7 -35 9 -258 4
-394 -1 -21 -1 -54 0 -73 0 -19 -4 -100 -9 -180 -9 -151 -38 -295 -73 -363
-23 -46 -26 -114 -8 -219 17 -107 4 -155 -62 -218 -26 -25 -48 -49 -48 -53 0
-4 13 -7 29 -7 21 0 40 11 63 34 31 33 46 40 76 37 17 -1 15 -41 -5 -87 -15
-35 -20 -57 -40 -159 -3 -16 -11 -37 -18 -45 -38 -47 -16 -56 34 -15 46 39 81
122 81 192 0 34 15 117 35 198 35 138 36 143 40 395 3 163 10 291 20 355 9 55
20 127 25 160 19 130 82 343 145 490 7 17 21 50 31 75 25 63 154 287 216 378
65 95 184 240 286 347 105 109 375 358 507 465 34 27 300 294 384 385 102 110
165 186 224 269 31 44 63 89 70 98 6 10 29 46 50 80 21 35 63 104 94 153 31
50 72 119 91 155 19 36 43 77 54 92 10 14 18 31 18 36 0 6 23 41 51 77 56 74
61 104 9 56 -30 -28 -201 -118 -310 -164 -61 -25 -376 -152 -610 -245 -202
-81 -307 -125 -394 -168 -16 -8 -33 -14 -38 -14 -5 0 -29 -13 -53 -30 -90 -62
-118 -20 -37 55 26 24 68 59 92 77 25 18 57 42 73 53 29 21 191 131 297 202
36 24 71 43 78 43 6 0 12 5 12 10 0 6 5 10 11 10 6 0 23 8 37 19 89 63 764
411 797 411 4 0 79 33 150 66 130 61 345 251 514 454 132 158 294 374 376 500
44 68 105 143 173 212 58 59 103 110 100 114 -3 3 -30 -8 -59 -25 -83 -46
-178 -73 -245 -69 -35 2 -59 8 -62 16 -2 6 3 12 11 12 8 0 20 7 27 15 7 8 37
29 66 46 69 39 189 157 240 235 22 34 60 105 84 157 44 95 44 95 114 134 80
45 98 70 45 59 -19 -4 -56 -11 -84 -15 -27 -4 -57 -11 -66 -15 -9 -4 -36 -9
-60 -11 -24 -2 -59 -7 -76 -11 -18 -3 -40 -4 -48 0 -25 9 -6 32 76 96 41 31
95 83 121 115 54 67 128 211 153 300 9 33 21 70 26 83 5 13 9 31 9 40 0 9 16
35 35 57 32 36 45 65 29 65 -3 0 -24 -13 -47 -28 -125 -86 -227 -124 -227 -87
0 8 29 52 64 97 35 46 80 109 100 140 56 89 161 305 186 383 27 89 78 222 101
267 5 10 9 26 9 36 0 10 4 22 8 28 5 5 18 33 30 62 23 56 98 175 143 227 14
17 68 76 120 133 118 130 143 161 136 168 -3 3 -47 -34 -99 -83z"/>
<path d="M23212 10565 c-16 -14 -45 -55 -63 -92 -18 -38 -51 -99 -71 -137 -21
-38 -38 -75 -38 -82 0 -8 -11 -21 -24 -29 -20 -13 -29 -14 -46 -5 -17 9 -26 8
-47 -5 -26 -17 -41 -40 -124 -188 -27 -48 -81 -132 -119 -185 -39 -53 -70
-105 -70 -114 0 -10 -10 -41 -23 -70 -12 -29 -33 -87 -46 -128 -60 -192 -68
-208 -129 -248 -32 -21 -69 -44 -83 -51 -40 -20 -137 -143 -176 -224 -19 -40
-44 -84 -54 -98 -10 -15 -19 -32 -19 -39 0 -20 -116 -177 -170 -230 -3 -3 -39
-43 -80 -90 -41 -47 -81 -91 -89 -99 -7 -8 -39 -53 -70 -100 l-56 -86 -1 -135
c0 -167 -8 -186 -56 -136 -13 13 -31 33 -41 45 l-18 22 -37 -29 c-47 -37 -103
-99 -167 -182 -27 -36 -55 -71 -62 -78 -66 -69 -85 -103 -100 -184 -14 -76
-19 -86 -57 -121 -22 -20 -50 -46 -61 -56 -11 -11 -37 -52 -59 -92 -21 -39
-58 -99 -82 -132 -24 -32 -44 -68 -44 -79 0 -10 20 -61 45 -113 57 -120 58
-124 45 -230 l-10 -90 32 -45 c17 -25 51 -74 76 -110 25 -36 80 -101 123 -145
63 -66 87 -100 132 -190 30 -60 60 -128 67 -150 13 -42 33 -90 49 -115 36 -56
165 -326 197 -410 16 -42 41 -86 56 -100 26 -24 28 -34 38 -150 6 -69 12 -174
14 -235 2 -60 9 -156 16 -212 l12 -101 -29 -44 c-61 -88 -64 -100 -47 -159 55
-185 90 -373 111 -597 5 -53 8 -63 27 -66 11 -3 35 -8 51 -11 17 -3 42 -9 58
-12 26 -5 67 -45 67 -64 0 -15 -41 -46 -105 -79 -95 -50 -95 -50 -95 -156 0
-80 -3 -99 -25 -141 -14 -26 -35 -58 -47 -70 -12 -13 -29 -53 -39 -90 -9 -38
-29 -102 -42 -143 -30 -88 -47 -160 -47 -195 0 -14 -11 -68 -25 -121 -14 -53
-25 -105 -25 -116 0 -38 -108 -131 -210 -180 -148 -72 -222 -98 -334 -118 -29
-6 -64 -21 -85 -38 -101 -80 -317 -220 -438 -283 -28 -15 -49 -30 -46 -33 4
-3 25 -6 47 -6 46 0 131 29 251 84 208 96 286 118 440 121 44 0 100 7 124 14
28 8 107 13 211 13 161 1 170 0 223 -26 31 -14 70 -26 87 -26 53 0 160 -30
518 -146 59 -20 124 -34 152 -34 51 0 105 -10 235 -42 135 -34 356 -64 377
-52 16 10 7 24 -16 24 -25 0 -175 59 -235 92 -19 11 -61 30 -95 42 -33 13 -81
33 -106 44 -25 11 -57 23 -72 26 -35 8 -63 48 -50 72 15 27 81 44 174 44 97 0
134 -7 286 -57 85 -28 108 -32 140 -25 20 5 82 17 137 26 55 10 119 21 143 27
23 5 64 9 91 9 28 0 62 5 77 10 15 6 112 11 217 11 182 0 292 -10 367 -33 19
-6 74 -12 123 -14 74 -2 115 -11 236 -49 80 -25 154 -51 163 -56 10 -5 27 -9
37 -9 11 0 22 -4 25 -9 3 -5 20 -11 38 -14 18 -2 74 -14 123 -26 153 -37 170
-40 178 -32 5 5 -42 41 -103 81 -112 74 -135 96 -124 123 9 24 65 30 366 34
273 3 288 5 298 23 17 32 59 47 163 60 96 12 160 10 302 -9 181 -24 232 -34
283 -53 47 -17 82 -21 221 -23 91 -1 202 -7 246 -12 44 -6 82 -10 83 -8 2 2
-10 32 -27 67 -38 76 -34 98 17 98 30 0 44 -9 96 -63 34 -34 75 -79 91 -99 23
-26 41 -37 73 -43 41 -7 73 2 44 12 -32 12 -74 60 -119 136 -66 111 -73 129
-73 192 0 48 3 57 27 72 40 26 185 25 234 -2 70 -39 224 -144 275 -188 28 -24
89 -63 135 -86 70 -34 100 -42 176 -50 51 -6 97 -13 103 -16 5 -3 15 -3 22 1
8 5 4 10 -12 15 -14 4 -62 23 -108 42 -125 52 -147 80 -97 127 22 21 31 22
107 18 116 -6 201 -53 279 -154 l40 -52 83 -1 c53 -1 95 -7 115 -17 29 -15 51
-12 51 5 0 12 -44 28 -110 41 -69 13 -117 41 -132 77 -17 41 -49 73 -72 74
-12 0 -41 14 -66 29 -98 63 -129 73 -245 80 -112 7 -216 34 -307 81 -54 28
-125 101 -148 152 -22 50 -78 104 -140 136 -71 37 -123 83 -297 258 -162 162
-310 337 -413 487 -68 98 -78 106 -122 83 -106 -54 -134 -77 -169 -133 -31
-50 -84 -104 -101 -104 -6 0 -8 15 -5 33 11 71 53 167 114 262 35 55 65 109
67 120 3 11 12 61 21 110 30 156 30 152 -1 193 -16 20 -37 53 -46 72 -39 82
-76 167 -83 189 -4 13 -22 49 -41 79 -37 62 -59 116 -99 242 -85 267 -177 462
-265 565 -30 35 -70 84 -88 110 l-33 46 -32 -20 c-42 -26 -53 -19 -116 78
l-51 79 20 52 c15 39 18 56 10 71 -28 51 -110 161 -224 300 -26 32 -97 143
-118 183 -11 23 -68 113 -126 201 -100 149 -224 382 -257 480 -8 23 -37 90
-64 146 -26 57 -63 149 -81 204 -18 55 -45 138 -60 185 -15 47 -31 101 -34
120 -10 52 -34 106 -88 198 -27 45 -50 82 -51 83 -6 3 -219 21 -257 22 -25 0
-60 -6 -77 -13 -29 -13 -35 -12 -49 2 -12 11 -13 20 -6 34 6 11 20 75 33 144
20 114 41 184 82 280 8 19 20 54 26 78 6 23 16 60 23 82 9 32 8 46 -2 68 -18
38 -26 61 -39 109 -6 23 -27 73 -46 112 -19 39 -35 76 -35 82 0 6 -11 37 -24
68 -13 31 -39 94 -56 141 -18 47 -38 99 -45 115 -7 17 -34 84 -60 150 -26 66
-58 146 -71 178 -13 32 -24 66 -24 76 0 9 -4 21 -8 26 -4 6 -16 35 -26 65 -10
30 -22 64 -26 75 -5 11 -25 72 -45 135 -20 63 -54 162 -76 219 -38 96 -54 146
-81 246 -19 68 -97 225 -112 225 -8 0 -28 -11 -44 -25z"/>
<path d="M13921 10010 c-44 -71 -173 -203 -245 -250 -83 -54 -89 -61 -122
-138 -15 -37 -43 -92 -61 -122 l-33 -55 5 -220 c3 -121 5 -225 5 -230 0 -6 13
-16 29 -22 23 -8 31 -19 36 -47 4 -20 11 -39 16 -42 10 -6 12 -64 3 -89 -4 -9
-24 -25 -45 -35 -47 -25 -69 -55 -69 -98 0 -29 5 -35 43 -51 49 -21 137 -116
137 -148 0 -14 -15 -26 -49 -42 -57 -25 -64 -39 -101 -206 -33 -151 -41 -186
-52 -230 -21 -87 -30 -148 -52 -345 -25 -218 -38 -271 -92 -363 -19 -32 -34
-62 -34 -66 0 -4 -13 -49 -30 -100 -37 -115 -140 -326 -218 -446 -54 -82 -114
-194 -155 -285 -9 -19 -25 -69 -36 -111 -11 -42 -40 -136 -64 -210 -24 -74
-56 -174 -72 -224 -44 -143 -52 -166 -80 -240 -30 -78 -105 -228 -117 -233 -4
-2 -8 -8 -8 -13 0 -11 -8 -28 -89 -184 -36 -71 -51 -111 -51 -140 0 -34 -4
-42 -28 -52 -44 -20 -265 -251 -308 -323 -59 -98 -197 -298 -248 -360 -25 -30
-77 -86 -115 -125 -78 -79 -81 -85 -114 -186 -43 -132 -67 -247 -73 -351 -3
-36 -14 -92 -25 -125 -26 -74 -26 -82 5 -128 39 -56 37 -63 -37 -115 l-48 -34
6 -60 c6 -61 15 -120 36 -219 10 -46 21 -63 81 -125 61 -62 76 -86 127 -199
61 -135 76 -167 152 -330 54 -117 37 -107 214 -121 96 -7 125 -6 147 5 15 7
54 16 87 19 49 6 70 2 127 -20 180 -68 178 -92 -14 -206 -50 -29 -89 -57 -86
-62 3 -4 13 -4 22 1 16 8 161 54 227 72 17 4 48 13 70 19 22 6 121 15 220 21
159 10 190 14 265 41 84 30 87 30 415 42 288 11 335 11 370 -2 24 -9 101 -18
195 -23 178 -9 225 -16 241 -35 20 -24 64 -16 115 21 89 65 183 105 242 105
46 0 58 -4 83 -29 19 -19 29 -40 29 -59 0 -39 -18 -54 -130 -107 -96 -45 -103
-50 -108 -64 -3 -10 0 -12 14 -7 11 4 55 11 99 15 94 9 153 33 234 95 33 26
63 46 67 46 3 0 25 16 47 36 37 34 43 36 91 32 30 -3 79 -18 119 -37 63 -31
72 -33 140 -27 116 9 167 17 167 26 0 9 -51 40 -146 89 -69 35 -107 67 -101
84 7 19 70 10 133 -19 33 -14 73 -32 89 -39 17 -7 66 -29 110 -48 52 -23 97
-36 130 -37 83 -3 525 37 537 49 4 3 -22 35 -57 70 -36 34 -68 74 -71 87 -13
52 15 67 78 40 18 -7 55 -19 83 -25 27 -7 61 -23 75 -36 14 -14 52 -45 85 -71
58 -44 62 -45 111 -39 30 3 62 1 80 -6 39 -15 93 -27 184 -39 41 -5 98 -14
125 -19 206 -37 307 -53 312 -48 16 16 -75 71 -162 97 -22 7 -50 16 -63 21
-13 5 -32 9 -42 9 -32 0 -215 100 -360 197 -142 94 -210 159 -242 230 -20 45
-31 50 -102 55 -58 4 -76 41 -146 313 -10 39 -23 83 -29 98 -6 16 -11 52 -11
80 0 104 -28 200 -103 357 -30 63 -58 129 -62 145 -14 56 -17 180 -6 230 6 28
18 86 26 130 9 44 21 101 26 127 12 53 13 50 -53 135 -26 34 -48 68 -48 74 0
17 129 269 156 306 13 17 24 35 24 40 0 4 30 44 65 88 l65 80 0 70 c0 39 5 88
10 110 6 22 15 87 20 145 11 120 22 204 45 340 9 52 20 125 25 161 9 65 23
150 40 239 21 107 86 291 136 386 18 33 24 67 29 165 4 68 14 141 21 162 10
28 11 62 4 140 -8 95 -10 103 -36 122 -56 41 -122 111 -142 151 -11 22 -35 54
-52 71 -18 18 -68 106 -121 214 l-91 184 -130 125 c-90 86 -145 131 -177 144
-78 31 -215 66 -282 71 -75 6 -84 14 -93 91 -8 74 1 84 75 84 58 0 58 0 63 33
3 17 7 101 9 185 l5 153 -107 107 c-59 59 -125 120 -147 137 -21 16 -79 69
-129 117 -99 95 -202 175 -269 207 -23 12 -70 23 -104 25 -34 3 -66 7 -71 10
-4 3 -21 24 -37 48 -16 24 -40 59 -55 78 -14 19 -81 113 -148 208 -107 150
-196 267 -238 310 -45 46 -85 106 -110 162 -41 95 -99 204 -111 208 -5 1 -24
-20 -41 -48z"/>
<path d="M10905 3214 c-66 -34 -79 -46 -135 -129 -26 -38 -96 -117 -155 -175
-59 -58 -117 -115 -128 -127 -11 -13 -29 -23 -38 -23 -30 0 -136 -65 -206
-127 -19 -16 -60 -82 -99 -158 -36 -71 -73 -136 -82 -142 -13 -11 -12 -15 11
-34 15 -11 41 -40 57 -64 22 -32 41 -47 68 -55 20 -5 100 -28 177 -51 77 -22
151 -43 165 -45 14 -3 34 -9 45 -14 11 -4 74 -20 140 -35 66 -14 136 -31 156
-37 19 -5 84 -11 143 -11 120 -2 127 1 147 75 10 41 4 37 154 74 106 26 173
58 185 89 6 15 10 81 10 148 l0 122 -38 45 c-20 24 -54 63 -74 85 -164 181
-220 281 -232 409 -6 67 -21 88 -100 139 -28 17 -60 40 -70 49 -26 24 -41 22
-101 -8z"/>
</g>
</svg>
